<mxfile host="app.diagrams.net" modified="2023-04-09T00:02:07.894Z" agent="Mozilla/5.0 (Windows NT 10.0; Win64; x64) AppleWebKit/537.36 (KHTML, like Gecko) Chrome/111.0.0.0 Safari/537.36" etag="AjFL1wVCAxtE3_Nn4uRa" version="21.1.5" type="github">
  <diagram name="第 1 页" id="tZCEg8XGOGG1ttevQQDx">
    <mxGraphModel dx="1999" dy="1196" grid="1" gridSize="10" guides="1" tooltips="1" connect="1" arrows="1" fold="1" page="1" pageScale="1" pageWidth="4681" pageHeight="3300" math="0" shadow="0">
      <root>
        <mxCell id="0" />
        <mxCell id="1" parent="0" />
        <mxCell id="iRDfhrIxAlgStqD0Ntbi-2" style="edgeStyle=orthogonalEdgeStyle;rounded=0;orthogonalLoop=1;jettySize=auto;html=1;fontSize=15;entryX=0.5;entryY=1;entryDx=0;entryDy=0;" edge="1" parent="1" source="iRDfhrIxAlgStqD0Ntbi-3" target="iRDfhrIxAlgStqD0Ntbi-15">
          <mxGeometry relative="1" as="geometry" />
        </mxCell>
        <mxCell id="iRDfhrIxAlgStqD0Ntbi-3" value="Jmeter/Loadrunner" style="strokeWidth=2;dashed=0;align=center;fontSize=15;shape=rect;fillColor=#c0f5a9;verticalLabelPosition=middle;verticalAlign=middle;labelPosition=center;" vertex="1" parent="1">
          <mxGeometry x="765" y="1210" width="150" height="90" as="geometry" />
        </mxCell>
        <mxCell id="iRDfhrIxAlgStqD0Ntbi-21" value="Publish/Subscribe(Student Topics)" style="edgeStyle=orthogonalEdgeStyle;rounded=0;orthogonalLoop=1;jettySize=auto;html=1;entryX=0.855;entryY=0;entryDx=0;entryDy=4.35;entryPerimeter=0;shape=link;fontSize=16;align=left;" edge="1" parent="1" source="iRDfhrIxAlgStqD0Ntbi-6" target="iRDfhrIxAlgStqD0Ntbi-16">
          <mxGeometry relative="1" as="geometry" />
        </mxCell>
        <mxCell id="iRDfhrIxAlgStqD0Ntbi-6" value="StudentService" style="strokeWidth=2;dashed=0;align=center;fontSize=15;shape=rect;fillColor=#c0f5a9;verticalLabelPosition=middle;verticalAlign=middle;labelPosition=center;" vertex="1" parent="1">
          <mxGeometry x="1210" y="560" width="150" height="90" as="geometry" />
        </mxCell>
        <mxCell id="iRDfhrIxAlgStqD0Ntbi-18" value="Publish/Subscribe(School Topics)" style="edgeStyle=orthogonalEdgeStyle;rounded=0;orthogonalLoop=1;jettySize=auto;html=1;entryX=0.145;entryY=0;entryDx=0;entryDy=4.35;entryPerimeter=0;shape=link;fontSize=16;align=right;" edge="1" parent="1" source="iRDfhrIxAlgStqD0Ntbi-8" target="iRDfhrIxAlgStqD0Ntbi-16">
          <mxGeometry relative="1" as="geometry" />
        </mxCell>
        <mxCell id="iRDfhrIxAlgStqD0Ntbi-8" value="SchoolService" style="strokeWidth=2;dashed=0;align=center;fontSize=15;shape=rect;fillColor=#c0f5a9;verticalLabelPosition=middle;verticalAlign=middle;labelPosition=center;" vertex="1" parent="1">
          <mxGeometry x="310" y="560" width="150" height="90" as="geometry" />
        </mxCell>
        <mxCell id="iRDfhrIxAlgStqD0Ntbi-17" value="&lt;font style=&quot;font-size: 16px;&quot;&gt;Publish/Subscribe(School/Student Topics)&lt;/font&gt;" style="edgeStyle=orthogonalEdgeStyle;rounded=0;orthogonalLoop=1;jettySize=auto;html=1;strokeColor=default;shape=link;" edge="1" parent="1" source="iRDfhrIxAlgStqD0Ntbi-15" target="iRDfhrIxAlgStqD0Ntbi-16">
          <mxGeometry relative="1" as="geometry" />
        </mxCell>
        <mxCell id="iRDfhrIxAlgStqD0Ntbi-15" value="Application Gateway" style="strokeWidth=2;dashed=0;align=center;fontSize=15;shape=rect;fillColor=#c0f5a9;verticalLabelPosition=middle;verticalAlign=middle;labelPosition=center;" vertex="1" parent="1">
          <mxGeometry x="765" y="1040" width="150" height="90" as="geometry" />
        </mxCell>
        <mxCell id="iRDfhrIxAlgStqD0Ntbi-16" value="ActiveMQ" style="shape=cylinder3;whiteSpace=wrap;html=1;boundedLbl=1;backgroundOutline=1;size=15;fillColor=#d5e8d4;strokeColor=#82b366;" vertex="1" parent="1">
          <mxGeometry x="810" y="750" width="60" height="140" as="geometry" />
        </mxCell>
      </root>
    </mxGraphModel>
  </diagram>
</mxfile>
